<svg xmlns="http://www.w3.org/2000/svg" width="24" height="24" viewBox="0 0 16 16" fill="none">
  <path d="M8.00016 1.33333C4.32016 1.33333 1.3335 4.31999 1.3335 8C1.3335 11.68 4.32016 14.6667 8.00016 14.6667C11.6802 14.6667 14.6668 11.68 14.6668 8C14.6668 4.31999 11.6802 1.33333 8.00016 1.33333ZM8.00016 13.3333C5.06016 13.3333 2.66683 10.94 2.66683 8C2.66683 5.06 5.06016 2.66666 8.00016 2.66666C10.9402 2.66666 13.3335 5.06 13.3335 8C13.3335 10.94 10.9402 13.3333 8.00016 13.3333ZM11.0602 5.05333L6.66683 9.44666L4.94016 7.72666L4.00016 8.66666L6.66683 11.3333L12.0002 6L11.0602 5.05333Z" fill="#414E6D"/>
</svg>