<svg xmlns="http://www.w3.org/2000/svg" width="20" height="20" viewBox="0 0 20 20" fill="none">
  <path d="M15.0002 7.08333H14.1668V5.41667C14.1668 3.11667 12.3002 1.25 10.0002 1.25C7.70016 1.25 5.8335 3.11667 5.8335 5.41667V7.08333H5.00016C4.0835 7.08333 3.3335 7.83333 3.3335 8.75V17.0833C3.3335 18 4.0835 18.75 5.00016 18.75H15.0002C15.9168 18.75 16.6668 18 16.6668 17.0833V8.75C16.6668 7.83333 15.9168 7.08333 15.0002 7.08333ZM10.0002 14.5833C9.0835 14.5833 8.3335 13.8333 8.3335 12.9167C8.3335 12 9.0835 11.25 10.0002 11.25C10.9168 11.25 11.6668 12 11.6668 12.9167C11.6668 13.8333 10.9168 14.5833 10.0002 14.5833ZM12.5835 7.08333H7.41683V5.41667C7.41683 3.99167 8.57516 2.83333 10.0002 2.83333C11.4252 2.83333 12.5835 3.99167 12.5835 5.41667V7.08333Z" fill="#414E6D"/>
</svg>