
<svg xmlns="http://www.w3.org/2000/svg" width="32" height="32" viewBox="0 0 32 32" fill="none">
<path d="M15.9977 2C13.2292 2 10.5228 2.82109 8.22083 4.35943C5.91887 5.89777 4.12471 8.08427 3.06524 10.6424C2.00576 13.2006 1.72855 16.0155 2.26867 18.7313C2.80878 21.447 4.14197 23.9416 6.09962 25.8995C8.05728 27.8574 10.5515 29.1908 13.2668 29.731C15.9822 30.2712 18.7967 29.9939 21.3545 28.9343C23.9123 27.8747 26.0985 26.0803 27.6366 23.778C29.1747 21.4757 29.9957 18.7689 29.9957 16C29.9915 12.2883 28.5154 8.72973 25.8912 6.10513C23.2669 3.48052 19.7089 2.00418 15.9977 2ZM25.1688 18.7356H19.2158C19.1524 18.7355 19.0896 18.748 19.0311 18.7723C18.9725 18.7965 18.9193 18.8321 18.8744 18.8769C18.8296 18.9217 18.7941 18.975 18.7698 19.0335C18.7456 19.0921 18.7331 19.1549 18.7331 19.2183V25.1724H13.2625V19.2183C13.2625 19.0903 13.2117 18.9675 13.1212 18.877C13.0306 18.7864 12.9079 18.7356 12.7799 18.7356H6.8266V13.2644H12.7799C12.9079 13.2644 13.0306 13.2136 13.1212 13.123C13.2117 13.0325 13.2625 12.9097 13.2625 12.7817V6.82759H18.7331V12.7817C18.7331 12.8451 18.7456 12.9079 18.7698 12.9665C18.7941 13.025 18.8296 13.0783 18.8744 13.1231C18.9193 13.1679 18.9725 13.2035 19.0311 13.2277C19.0896 13.252 19.1524 13.2645 19.2158 13.2644H25.1688V18.7356Z" fill="white"/>
</svg>