<svg xmlns="http://www.w3.org/2000/svg" width="117" height="22" viewBox="0 0 117 22" fill="none">
<path d="M0.664734 17.1496L7.79796 1.39579H10.0257L17.1814 17.1496H14.8187L8.45052 2.6561H9.35062L2.98247 17.1496H0.664734ZM3.70254 13.2112L4.3101 11.4107H13.176L13.8286 13.2112H3.70254Z" fill="white"/>
<path d="M23.9571 17.2847C22.967 17.2847 22.0594 17.0596 21.2343 16.6095C20.4242 16.1444 19.7716 15.4617 19.2766 14.5615C18.7965 13.6613 18.5565 12.536 18.5565 11.1857C18.5565 9.83535 18.789 8.71008 19.2541 7.80986C19.7341 6.90964 20.3792 6.23447 21.1893 5.78436C22.0144 5.33425 22.937 5.1092 23.9571 5.1092C25.1272 5.1092 26.1623 5.36426 27.0624 5.87439C27.9625 6.38451 28.675 7.09718 29.2001 8.01241C29.7251 8.91263 29.9877 9.97039 29.9877 11.1857C29.9877 12.401 29.7251 13.4662 29.2001 14.3815C28.675 15.2967 27.9625 16.0094 27.0624 16.5195C26.1623 17.0296 25.1272 17.2847 23.9571 17.2847ZM17.6339 21.5157V5.22173H19.7041V8.44001L19.5691 11.2082L19.7941 13.9764V21.5157H17.6339ZM23.777 15.3942C24.5421 15.3942 25.2247 15.2217 25.8247 14.8766C26.4398 14.5315 26.9199 14.0439 27.2649 13.4137C27.6249 12.7686 27.8049 12.0259 27.8049 11.1857C27.8049 10.3305 27.6249 9.59529 27.2649 8.98014C26.9199 8.34999 26.4398 7.86237 25.8247 7.51729C25.2247 7.1722 24.5421 6.99966 23.777 6.99966C23.027 6.99966 22.3444 7.1722 21.7293 7.51729C21.1293 7.86237 20.6492 8.34999 20.2892 8.98014C19.9442 9.59529 19.7716 10.3305 19.7716 11.1857C19.7716 12.0259 19.9442 12.7686 20.2892 13.4137C20.6492 14.0439 21.1293 14.5315 21.7293 14.8766C22.3444 15.2217 23.027 15.3942 23.777 15.3942Z" fill="white"/>
<path d="M35.4856 17.2847C34.2855 17.2847 33.3554 16.9621 32.6953 16.3169C32.0353 15.6718 31.7052 14.7491 31.7052 13.5488V2.61109H33.8654V13.4587C33.8654 14.1039 34.023 14.599 34.338 14.9441C34.668 15.2892 35.1331 15.4617 35.7331 15.4617C36.4082 15.4617 36.9708 15.2742 37.4208 14.8991L38.0959 16.452C37.7658 16.737 37.3683 16.9471 36.9033 17.0821C36.4532 17.2172 35.9807 17.2847 35.4856 17.2847ZM29.68 6.99966V5.22173H37.2858V6.99966H29.68Z" fill="white"/>
<path d="M44.0403 17.2847C42.7652 17.2847 41.6401 17.0221 40.665 16.497C39.7049 15.9719 38.9548 15.2517 38.4148 14.3365C37.8897 13.4212 37.6272 12.371 37.6272 11.1857C37.6272 10.0004 37.8822 8.95014 38.3923 8.03491C38.9173 7.11969 39.6299 6.40702 40.53 5.89689C41.4451 5.37176 42.4727 5.1092 43.6128 5.1092C44.7679 5.1092 45.788 5.36426 46.6731 5.87439C47.5582 6.38451 48.2483 7.10469 48.7433 8.03491C49.2534 8.95014 49.5084 10.0229 49.5084 11.2532C49.5084 11.3432 49.5009 11.4482 49.4859 11.5683C49.4859 11.6883 49.4784 11.8008 49.4634 11.9059H39.3149V10.353H48.3383L47.4607 10.8931C47.4757 10.1279 47.3182 9.44526 46.9881 8.84511C46.6581 8.24496 46.2006 7.77985 45.6155 7.44977C45.0454 7.10469 44.3779 6.93214 43.6128 6.93214C42.8627 6.93214 42.1952 7.10469 41.6101 7.44977C41.025 7.77985 40.5675 8.25247 40.2375 8.86762C39.9074 9.46776 39.7424 10.1579 39.7424 10.9381V11.2982C39.7424 12.0934 39.9224 12.8061 40.2825 13.4362C40.6575 14.0514 41.1751 14.5315 41.8351 14.8766C42.4952 15.2217 43.2528 15.3942 44.1079 15.3942C44.8129 15.3942 45.4505 15.2742 46.0205 15.0341C46.6056 14.7941 47.1157 14.434 47.5507 13.9539L48.7433 15.3492C48.2033 15.9794 47.5282 16.4595 46.7181 16.7896C45.923 17.1196 45.0304 17.2847 44.0403 17.2847Z" fill="white"/>
<path d="M52.681 14.2689L52.7261 11.5008L59.5892 5.22173H62.1995L56.934 10.398L55.7639 11.3882L52.681 14.2689ZM50.9259 17.1496V0.450562H53.0861V17.1496H50.9259ZM60.0393 17.1496L55.3588 11.3432L56.754 9.6103L62.6946 17.1496H60.0393Z" fill="white"/>
<path d="M70.3933 17.1496V14.629L70.2808 14.1564V9.85786C70.2808 8.94263 70.0108 8.23746 69.4707 7.74234C68.9457 7.23222 68.1506 6.97716 67.0855 6.97716C66.3804 6.97716 65.6904 7.09718 65.0153 7.33724C64.3402 7.5623 63.7702 7.86987 63.3051 8.25997L62.405 6.63957C63.0201 6.14445 63.7552 5.76936 64.6102 5.5143C65.4803 5.24423 66.3879 5.1092 67.333 5.1092C68.9682 5.1092 70.2283 5.5068 71.1134 6.30199C71.9985 7.09718 72.441 8.31248 72.441 9.94788V17.1496H70.3933ZM66.4779 17.2847C65.5928 17.2847 64.8128 17.1346 64.1377 16.8346C63.4776 16.5345 62.9676 16.1219 62.6075 15.5968C62.2475 15.0566 62.0675 14.449 62.0675 13.7738C62.0675 13.1287 62.2175 12.5435 62.5175 12.0184C62.8326 11.4933 63.3351 11.0732 64.0252 10.7581C64.7303 10.443 65.6754 10.2855 66.8605 10.2855H70.6409V11.8383H66.9505C65.8704 11.8383 65.1428 12.0184 64.7678 12.3785C64.3927 12.7386 64.2052 13.1737 64.2052 13.6838C64.2052 14.2689 64.4377 14.7416 64.9028 15.1016C65.3678 15.4467 66.0129 15.6193 66.838 15.6193C67.6481 15.6193 68.3531 15.4392 68.9532 15.0791C69.5683 14.719 70.0108 14.1939 70.2808 13.5037L70.7084 14.9891C70.4233 15.6943 69.9208 16.2569 69.2007 16.677C68.4806 17.0821 67.573 17.2847 66.4779 17.2847Z" fill="white"/>
<path d="M82.2823 17.3297C81.0821 17.3297 79.9645 17.1271 78.9294 16.722C77.9093 16.3169 77.0242 15.7543 76.2742 15.0341C75.5241 14.2989 74.939 13.4437 74.519 12.4685C74.0989 11.4933 73.8889 10.428 73.8889 9.27272C73.8889 8.11743 74.0989 7.05217 74.519 6.07694C74.939 5.1017 75.5241 4.25399 76.2742 3.53381C77.0242 2.79863 77.9093 2.2285 78.9294 1.8234C79.9495 1.4183 81.0671 1.21575 82.2823 1.21575C83.4824 1.21575 84.585 1.4183 85.5901 1.8234C86.6102 2.21349 87.4953 2.77613 88.2454 3.51131C89.0105 4.23148 89.5955 5.07919 90.0006 6.05443C90.4206 7.02967 90.6306 8.10243 90.6306 9.27272C90.6306 10.443 90.4206 11.5158 90.0006 12.491C89.5955 13.4662 89.0105 14.3214 88.2454 15.0566C87.4953 15.7768 86.6102 16.3394 85.5901 16.7445C84.585 17.1346 83.4824 17.3297 82.2823 17.3297ZM82.2823 15.3267C83.1524 15.3267 83.9549 15.1767 84.69 14.8766C85.4401 14.5765 86.0852 14.1564 86.6252 13.6163C87.1803 13.0611 87.6078 12.416 87.9078 11.6808C88.2229 10.9456 88.3804 10.1429 88.3804 9.27272C88.3804 8.4025 88.2229 7.59981 87.9078 6.86463C87.6078 6.12945 87.1803 5.49179 86.6252 4.95166C86.0852 4.39652 85.4401 3.96892 84.69 3.66885C83.9549 3.36877 83.1524 3.21874 82.2823 3.21874C81.3972 3.21874 80.5796 3.36877 79.8295 3.66885C79.0945 3.96892 78.4494 4.39652 77.8943 4.95166C77.3393 5.49179 76.9042 6.12945 76.5892 6.86463C76.2892 7.59981 76.1391 8.4025 76.1391 9.27272C76.1391 10.1429 76.2892 10.9456 76.5892 11.6808C76.9042 12.416 77.3393 13.0611 77.8943 13.6163C78.4494 14.1564 79.0945 14.5765 79.8295 14.8766C80.5796 15.1767 81.3972 15.3267 82.2823 15.3267Z" fill="white"/>
<path d="M98.5409 5.1092C99.516 5.1092 100.371 5.29674 101.106 5.67184C101.856 6.04693 102.441 6.61707 102.861 7.38225C103.281 8.14744 103.491 9.11518 103.491 10.2855V17.1496H101.331V10.533C101.331 9.37774 101.046 8.50753 100.476 7.92239C99.921 7.33724 99.1334 7.04467 98.1133 7.04467C97.3483 7.04467 96.6807 7.19471 96.1106 7.49478C95.5406 7.79485 95.098 8.23746 94.783 8.82261C94.483 9.40775 94.333 10.1354 94.333 11.0056V17.1496H92.1727V5.22173H94.2429V8.44001L93.9054 7.5848C94.2954 6.80461 94.8955 6.19696 95.7056 5.76186C96.5157 5.32675 97.4608 5.1092 98.5409 5.1092Z" fill="white"/>
<path d="M111.218 17.2847C109.942 17.2847 108.817 17.0221 107.842 16.497C106.882 15.9719 106.132 15.2517 105.592 14.3365C105.067 13.4212 104.804 12.371 104.804 11.1857C104.804 10.0004 105.059 8.95014 105.57 8.03491C106.095 7.11969 106.807 6.40702 107.707 5.89689C108.622 5.37176 109.65 5.1092 110.79 5.1092C111.945 5.1092 112.965 5.36426 113.85 5.87439C114.735 6.38451 115.426 7.10469 115.921 8.03491C116.431 8.95014 116.686 10.0229 116.686 11.2532C116.686 11.3432 116.678 11.4482 116.663 11.5683C116.663 11.6883 116.656 11.8008 116.641 11.9059H106.492V10.353H115.516L114.638 10.8931C114.653 10.1279 114.495 9.44526 114.165 8.84511C113.835 8.24496 113.378 7.77985 112.793 7.44977C112.223 7.10469 111.555 6.93214 110.79 6.93214C110.04 6.93214 109.372 7.10469 108.787 7.44977C108.202 7.77985 107.745 8.25247 107.415 8.86762C107.085 9.46776 106.92 10.1579 106.92 10.9381V11.2982C106.92 12.0934 107.1 12.8061 107.46 13.4362C107.835 14.0514 108.352 14.5315 109.012 14.8766C109.672 15.2217 110.43 15.3942 111.285 15.3942C111.99 15.3942 112.628 15.2742 113.198 15.0341C113.783 14.7941 114.293 14.434 114.728 13.9539L115.921 15.3492C115.381 15.9794 114.705 16.4595 113.895 16.7896C113.1 17.1196 112.208 17.2847 111.218 17.2847Z" fill="white"/>
</svg>
